<svg width="207" height="150" viewBox="0 0 207 150" fill="none" xmlns="http://www.w3.org/2000/svg">
<path d="M1.7 135V132.756C2.22133 132.733 2.652 132.665 2.992 132.552C3.35467 132.439 3.62667 132.178 3.808 131.77C4.012 131.362 4.114 130.705 4.114 129.798V116.776C4.114 116.164 4.12533 115.575 4.148 115.008C4.19333 114.441 4.22733 114.011 4.25 113.716C3.88733 113.739 3.434 113.761 2.89 113.784C2.346 113.784 1.94933 113.795 1.7 113.818V111.2H18.7L18.904 117.796H16.66C16.66 116.549 16.4447 115.609 16.014 114.974C15.5833 114.339 15.0507 113.92 14.416 113.716C13.7813 113.489 13.158 113.387 12.546 113.41L11.322 113.444C10.846 113.444 10.438 113.512 10.098 113.648C9.758 113.761 9.49733 114.033 9.316 114.464C9.13467 114.872 9.044 115.518 9.044 116.402V122.318H12.546L12.41 119.394H15.028V127.656H12.784C12.784 126.704 12.6367 126.013 12.342 125.582C12.0473 125.151 11.6393 124.891 11.118 124.8C10.6193 124.687 10.064 124.641 9.452 124.664H9.044V129.424C9.044 130.036 9.03267 130.625 9.01 131.192C8.98733 131.759 8.95333 132.189 8.908 132.484C9.15733 132.461 9.486 132.45 9.894 132.45C10.302 132.427 10.6987 132.416 11.084 132.416C11.492 132.393 11.7753 132.382 11.934 132.382V135H1.7ZM20.4526 132.79C21.3819 132.79 21.9486 132.518 22.1526 131.974C22.3566 131.407 22.4586 130.671 22.4586 129.764V124.12C22.4586 123.712 22.4699 123.247 22.4926 122.726C22.5153 122.182 22.5493 121.661 22.5946 121.162C22.2319 121.185 21.8013 121.207 21.3026 121.23C20.8266 121.23 20.4639 121.241 20.2146 121.264V118.68C21.7786 118.68 22.9799 118.567 23.8186 118.34C24.6799 118.113 25.2239 117.887 25.4506 117.66H27.2866V129.526C27.2866 129.843 27.2753 130.297 27.2526 130.886C27.2299 131.453 27.1959 131.997 27.1506 132.518C27.5133 132.473 27.9099 132.45 28.3406 132.45C28.7939 132.427 29.1339 132.416 29.3606 132.416V135H20.4526V132.79ZM24.7026 114.974C23.9319 114.974 23.2973 114.702 22.7986 114.158C22.2999 113.614 22.0506 112.957 22.0506 112.186C22.0506 111.415 22.3113 110.758 22.8326 110.214C23.3539 109.67 23.9659 109.398 24.6686 109.398C25.3939 109.398 25.9946 109.67 26.4706 110.214C26.9693 110.758 27.2186 111.415 27.2186 112.186C27.2186 112.957 26.9919 113.614 26.5386 114.158C26.0853 114.702 25.4733 114.974 24.7026 114.974ZM31.5756 132.79C32.505 132.79 33.0716 132.518 33.2756 131.974C33.4796 131.407 33.5816 130.671 33.5816 129.764V124.052C33.5816 123.644 33.593 123.191 33.6156 122.692C33.6383 122.171 33.6723 121.661 33.7176 121.162C33.355 121.185 32.9243 121.207 32.4256 121.23C31.9496 121.23 31.587 121.241 31.3376 121.264V118.68H32.6976C33.5816 118.68 34.3863 118.567 35.1116 118.34C35.8596 118.113 36.347 117.887 36.5736 117.66H38.2396C38.285 117.887 38.319 118.317 38.3416 118.952C38.3643 119.564 38.3756 120.108 38.3756 120.584C39.2823 119.451 40.1323 118.646 40.9256 118.17C41.719 117.694 42.5236 117.456 43.3396 117.456C44.133 117.456 44.8243 117.683 45.4136 118.136C46.003 118.567 46.2976 119.281 46.2976 120.278C46.2976 120.618 46.2183 120.981 46.0596 121.366C45.901 121.729 45.6516 122.035 45.3116 122.284C44.9716 122.533 44.507 122.658 43.9176 122.658C43.4643 122.658 42.9996 122.522 42.5236 122.25C42.0476 121.978 41.7756 121.457 41.7076 120.686C41.2543 120.686 40.801 120.879 40.3476 121.264C39.8943 121.627 39.4863 122.069 39.1236 122.59C38.7836 123.089 38.5456 123.553 38.4096 123.984V129.526C38.4096 129.843 38.3983 130.297 38.3756 130.886C38.353 131.453 38.319 131.997 38.2736 132.518C38.6363 132.473 39.033 132.45 39.4636 132.45C39.917 132.427 40.257 132.416 40.4836 132.416V135H31.5756V132.79ZM57.1976 135C57.1522 134.683 57.1182 134.422 57.0956 134.218C57.0956 133.991 57.0842 133.731 57.0616 133.436C56.2909 134.207 55.4749 134.751 54.6136 135.068C53.7522 135.385 52.8796 135.544 51.9956 135.544C50.5449 135.544 49.4116 135.113 48.5956 134.252C47.7796 133.391 47.3716 132.314 47.3716 131.022C47.3716 129.934 47.6436 129.005 48.1876 128.234C48.7542 127.463 49.4909 126.84 50.3976 126.364C51.3269 125.865 52.3469 125.491 53.4576 125.242C54.5909 124.97 55.7242 124.811 56.8576 124.766V122.998C56.8576 122.114 56.6762 121.366 56.3136 120.754C55.9736 120.142 55.3389 119.859 54.4096 119.904C53.4576 119.949 52.6869 120.267 52.0976 120.856C52.2789 121.06 52.3922 121.287 52.4376 121.536C52.4829 121.763 52.5056 121.967 52.5056 122.148C52.5056 122.601 52.3242 123.077 51.9616 123.576C51.5989 124.052 51.0209 124.279 50.2276 124.256C49.5476 124.233 49.0262 123.995 48.6636 123.542C48.3009 123.089 48.1196 122.556 48.1196 121.944C48.1196 121.037 48.4369 120.255 49.0716 119.598C49.7289 118.918 50.6016 118.397 51.6896 118.034C52.7776 117.649 53.9789 117.456 55.2936 117.456C57.2882 117.456 58.8296 117.977 59.9176 119.02C61.0282 120.04 61.5836 121.683 61.5836 123.95C61.5836 124.721 61.5836 125.378 61.5836 125.922C61.5836 126.466 61.5722 127.01 61.5496 127.554C61.5496 128.098 61.5496 128.755 61.5496 129.526C61.5496 129.843 61.5382 130.297 61.5156 130.886C61.4929 131.453 61.4589 131.997 61.4136 132.518C61.7989 132.473 62.2069 132.45 62.6376 132.45C63.0682 132.427 63.3969 132.416 63.6236 132.416V135H57.1976ZM56.8236 127.18C55.5542 127.293 54.4549 127.622 53.5256 128.166C52.6189 128.71 52.1769 129.469 52.1996 130.444C52.2222 131.079 52.4262 131.532 52.8116 131.804C53.1969 132.076 53.6389 132.212 54.1376 132.212C54.6589 132.212 55.1462 132.099 55.5996 131.872C56.0529 131.645 56.4609 131.351 56.8236 130.988V127.18ZM65.5756 135V132.79C66.505 132.79 67.0716 132.518 67.2756 131.974C67.4796 131.407 67.5816 130.671 67.5816 129.764V124.052C67.5816 123.644 67.593 123.191 67.6156 122.692C67.6383 122.171 67.6723 121.661 67.7176 121.162C67.355 121.185 66.9243 121.207 66.4256 121.23C65.9496 121.23 65.587 121.241 65.3376 121.264V118.68C66.9016 118.68 68.103 118.567 68.9416 118.34C69.803 118.113 70.347 117.887 70.5736 117.66H72.2396C72.285 117.955 72.3076 118.17 72.3076 118.306C72.3076 118.442 72.3076 118.578 72.3076 118.714C72.3303 118.827 72.3756 119.043 72.4436 119.36C72.897 118.997 73.4183 118.68 74.0076 118.408C74.597 118.113 75.1863 117.887 75.7756 117.728C76.365 117.547 76.8863 117.456 77.3396 117.456C79.425 117.456 80.8983 118.057 81.7596 119.258C82.6436 120.437 83.0856 122.341 83.0856 124.97V129.526C83.0856 129.843 83.0743 130.297 83.0516 130.886C83.029 131.453 82.995 131.997 82.9496 132.518C83.335 132.473 83.743 132.45 84.1736 132.45C84.6043 132.427 84.933 132.416 85.1596 132.416V135H76.2516V132.79C77.2036 132.79 77.7816 132.518 77.9856 131.974C78.1896 131.407 78.2916 130.671 78.2916 129.764L78.2576 124.936C78.2576 123.463 78.0423 122.375 77.6116 121.672C77.2036 120.947 76.501 120.584 75.5036 120.584C74.937 120.584 74.3703 120.709 73.8036 120.958C73.2596 121.207 72.795 121.502 72.4096 121.842V129.526C72.4096 129.843 72.3983 130.297 72.3756 130.886C72.353 131.453 72.319 131.997 72.2736 132.518C72.6363 132.473 73.033 132.45 73.4636 132.45C73.917 132.427 74.257 132.416 74.4836 132.416V135H65.5756ZM95.0109 135.544C94.0362 135.544 93.0842 135.419 92.1549 135.17C91.2255 134.921 90.5002 134.603 89.9789 134.218L90.0469 135.238H87.4629L87.3269 129.39H89.5369C89.6502 130.433 90.1942 131.317 91.1689 132.042C92.1435 132.745 93.3562 133.096 94.8069 133.096C95.3735 133.096 95.9062 132.96 96.4049 132.688C96.9035 132.416 97.1529 131.985 97.1529 131.396C97.1302 130.739 96.7789 130.251 96.0989 129.934C95.4415 129.617 94.4782 129.209 93.2089 128.71C92.5062 128.438 91.7922 128.155 91.0669 127.86C90.3642 127.565 89.7069 127.214 89.0949 126.806C88.5055 126.375 88.0295 125.854 87.6669 125.242C87.3042 124.607 87.1229 123.837 87.1229 122.93C87.1229 122.046 87.3382 121.185 87.7689 120.346C88.2222 119.507 88.9249 118.816 89.8769 118.272C90.8289 117.728 92.0415 117.456 93.5149 117.456C94.1269 117.456 94.8182 117.558 95.5889 117.762C96.3822 117.943 97.0509 118.227 97.5949 118.612V117.626H100.179V123.644H97.9689C97.7649 122.465 97.2435 121.536 96.4049 120.856C95.5662 120.176 94.5349 119.836 93.3109 119.836C92.7442 119.836 92.2229 119.972 91.7469 120.244C91.2935 120.516 91.0669 120.981 91.0669 121.638C91.0669 122.159 91.2482 122.579 91.6109 122.896C91.9735 123.191 92.4722 123.44 93.1069 123.644C93.7415 123.848 94.4442 124.086 95.2149 124.358C96.3709 124.743 97.3909 125.197 98.2749 125.718C99.1815 126.239 99.8955 126.874 100.417 127.622C100.938 128.347 101.199 129.243 101.199 130.308C101.199 131.487 100.904 132.461 100.315 133.232C99.7255 134.003 98.9549 134.581 98.0029 134.966C97.0735 135.351 96.0762 135.544 95.0109 135.544ZM111.751 135.544C110.096 135.544 108.634 135.181 107.365 134.456C106.095 133.708 105.109 132.665 104.407 131.328C103.704 129.968 103.353 128.37 103.353 126.534C103.353 124.947 103.704 123.463 104.407 122.08C105.109 120.697 106.095 119.587 107.365 118.748C108.657 117.887 110.153 117.456 111.853 117.456C112.805 117.456 113.734 117.592 114.641 117.864C115.547 118.113 116.363 118.555 117.089 119.19C117.837 119.825 118.426 120.686 118.857 121.774C119.31 122.862 119.525 124.222 119.503 125.854L108.351 126.058C108.351 127.282 108.498 128.381 108.793 129.356C109.11 130.331 109.62 131.101 110.323 131.668C111.025 132.235 111.966 132.518 113.145 132.518C113.825 132.518 114.629 132.337 115.559 131.974C116.511 131.589 117.372 130.92 118.143 129.968L119.673 131.396C118.857 132.552 117.984 133.436 117.055 134.048C116.125 134.637 115.196 135.034 114.267 135.238C113.36 135.442 112.521 135.544 111.751 135.544ZM108.555 123.678H114.811C114.788 122.273 114.516 121.287 113.995 120.72C113.473 120.131 112.816 119.836 112.023 119.836C111.025 119.836 110.243 120.199 109.677 120.924C109.11 121.627 108.736 122.545 108.555 123.678Z" fill="white"/>
<path d="M92.3906 140.39C92.3906 139.858 92.5456 139.416 92.8555 139.062C93.1764 138.707 93.6523 138.53 94.2832 138.53C94.9141 138.53 95.39 138.707 95.7109 139.062C96.043 139.416 96.209 139.858 96.209 140.39C96.209 140.899 96.043 141.325 95.7109 141.668C95.39 142.011 94.9141 142.183 94.2832 142.183C93.6523 142.183 93.1764 142.011 92.8555 141.668C92.5456 141.325 92.3906 140.899 92.3906 140.39Z" fill="white"/>
<path d="M109.391 140.39C109.391 139.858 109.546 139.416 109.855 139.062C110.176 138.707 110.652 138.53 111.283 138.53C111.914 138.53 112.39 138.707 112.711 139.062C113.043 139.416 113.209 139.858 113.209 140.39C113.209 140.899 113.043 141.325 112.711 141.668C112.39 142.011 111.914 142.183 111.283 142.183C110.652 142.183 110.176 142.011 109.855 141.668C109.546 141.325 109.391 140.899 109.391 140.39Z" fill="white"/>
<circle cx="57" cy="12" r="12" fill="white"/>
<circle cx="133" cy="12" r="12" fill="white"/>
<path fill-rule="evenodd" clip-rule="evenodd" d="M43.89 35C40.6921 35 38.2703 37.9173 39.2015 40.9766C46.2534 64.1434 67.7888 81 93.2613 81C118.734 81 140.269 64.1434 147.321 40.9766C148.252 37.9173 145.83 35 142.633 35V35C140.255 35 138.221 36.6522 137.484 38.9129C131.418 57.539 113.912 71 93.2613 71C72.6109 71 55.1046 57.539 49.0381 38.9129C48.3019 36.6522 46.2676 35 43.89 35V35Z" fill="white"/>
<path d="M143.086 124.697H132.346V136H128.971V110.406H144.826V113.184H132.346V121.938H143.086V124.697ZM147.111 126.314C147.111 124.451 147.475 122.775 148.201 121.287C148.939 119.799 149.959 118.65 151.26 117.842C152.572 117.033 154.066 116.629 155.742 116.629C158.332 116.629 160.424 117.525 162.018 119.318C163.623 121.111 164.426 123.496 164.426 126.473V126.701C164.426 128.553 164.068 130.217 163.354 131.693C162.65 133.158 161.637 134.301 160.312 135.121C159 135.941 157.488 136.352 155.777 136.352C153.199 136.352 151.107 135.455 149.502 133.662C147.908 131.869 147.111 129.496 147.111 126.543V126.314ZM150.381 126.701C150.381 128.811 150.867 130.504 151.84 131.781C152.824 133.059 154.137 133.697 155.777 133.697C157.43 133.697 158.742 133.053 159.715 131.764C160.688 130.463 161.174 128.646 161.174 126.314C161.174 124.229 160.676 122.541 159.68 121.252C158.695 119.951 157.383 119.301 155.742 119.301C154.137 119.301 152.842 119.939 151.857 121.217C150.873 122.494 150.381 124.322 150.381 126.701ZM167.643 126.314C167.643 124.451 168.006 122.775 168.732 121.287C169.471 119.799 170.49 118.65 171.791 117.842C173.104 117.033 174.598 116.629 176.273 116.629C178.863 116.629 180.955 117.525 182.549 119.318C184.154 121.111 184.957 123.496 184.957 126.473V126.701C184.957 128.553 184.6 130.217 183.885 131.693C183.182 133.158 182.168 134.301 180.844 135.121C179.531 135.941 178.02 136.352 176.309 136.352C173.73 136.352 171.639 135.455 170.033 133.662C168.439 131.869 167.643 129.496 167.643 126.543V126.314ZM170.912 126.701C170.912 128.811 171.398 130.504 172.371 131.781C173.355 133.059 174.668 133.697 176.309 133.697C177.961 133.697 179.273 133.053 180.246 131.764C181.219 130.463 181.705 128.646 181.705 126.314C181.705 124.229 181.207 122.541 180.211 121.252C179.227 119.951 177.914 119.301 176.273 119.301C174.668 119.301 173.373 119.939 172.389 121.217C171.404 122.494 170.912 124.322 170.912 126.701ZM188.244 126.332C188.244 123.414 188.936 121.07 190.318 119.301C191.701 117.52 193.512 116.629 195.75 116.629C197.977 116.629 199.74 117.391 201.041 118.914V109H204.293V136H201.305L201.146 133.961C199.846 135.555 198.035 136.352 195.715 136.352C193.512 136.352 191.713 135.449 190.318 133.645C188.936 131.84 188.244 129.484 188.244 126.578V126.332ZM191.496 126.701C191.496 128.857 191.941 130.545 192.832 131.764C193.723 132.982 194.953 133.592 196.523 133.592C198.586 133.592 200.092 132.666 201.041 130.814V122.078C200.068 120.285 198.574 119.389 196.559 119.389C194.965 119.389 193.723 120.004 192.832 121.234C191.941 122.465 191.496 124.287 191.496 126.701Z" fill="white"/>
</svg>
