<svg width="216" height="170" viewBox="0 0 216 170" fill="none" xmlns="http://www.w3.org/2000/svg">
<path d="M1.8 138V135.624C2.352 135.6 2.808 135.528 3.168 135.408C3.552 135.288 3.84 135.012 4.032 134.58C4.248 134.148 4.356 133.452 4.356 132.492V118.704C4.356 118.056 4.368 117.432 4.392 116.832C4.44 116.232 4.476 115.776 4.5 115.464C4.116 115.488 3.636 115.512 3.06 115.536C2.484 115.536 2.064 115.548 1.8 115.572V112.8H19.8L20.016 119.784H17.64C17.64 118.464 17.412 117.468 16.956 116.796C16.5 116.124 15.936 115.68 15.264 115.464C14.592 115.224 13.932 115.116 13.284 115.14L11.988 115.176C11.484 115.176 11.052 115.248 10.692 115.392C10.332 115.512 10.056 115.8 9.864 116.256C9.672 116.688 9.576 117.372 9.576 118.308V124.572H13.284L13.14 121.476H15.912V130.224H13.536C13.536 129.216 13.38 128.484 13.068 128.028C12.756 127.572 12.324 127.296 11.772 127.2C11.244 127.08 10.656 127.032 10.008 127.056H9.576V132.096C9.576 132.744 9.564 133.368 9.54 133.968C9.516 134.568 9.48 135.024 9.432 135.336C9.696 135.312 10.044 135.3 10.476 135.3C10.908 135.276 11.328 135.264 11.736 135.264C12.168 135.24 12.468 135.228 12.636 135.228V138H1.8ZM21.6557 135.66C22.6397 135.66 23.2397 135.372 23.4557 134.796C23.6717 134.196 23.7797 133.416 23.7797 132.456V126.48C23.7797 126.048 23.7917 125.556 23.8157 125.004C23.8397 124.428 23.8757 123.876 23.9237 123.348C23.5397 123.372 23.0837 123.396 22.5557 123.42C22.0517 123.42 21.6677 123.432 21.4037 123.456V120.72C23.0597 120.72 24.3317 120.6 25.2197 120.36C26.1317 120.12 26.7077 119.88 26.9477 119.64H28.8917V132.204C28.8917 132.54 28.8797 133.02 28.8557 133.644C28.8317 134.244 28.7957 134.82 28.7477 135.372C29.1317 135.324 29.5517 135.3 30.0077 135.3C30.4877 135.276 30.8477 135.264 31.0877 135.264V138H21.6557V135.66ZM26.1557 116.796C25.3397 116.796 24.6677 116.508 24.1397 115.932C23.6117 115.356 23.3477 114.66 23.3477 113.844C23.3477 113.028 23.6237 112.332 24.1757 111.756C24.7277 111.18 25.3757 110.892 26.1197 110.892C26.8877 110.892 27.5237 111.18 28.0277 111.756C28.5557 112.332 28.8197 113.028 28.8197 113.844C28.8197 114.66 28.5797 115.356 28.0997 115.932C27.6197 116.508 26.9717 116.796 26.1557 116.796ZM33.433 135.66C34.417 135.66 35.017 135.372 35.233 134.796C35.449 134.196 35.557 133.416 35.557 132.456V126.408C35.557 125.976 35.569 125.496 35.593 124.968C35.617 124.416 35.653 123.876 35.701 123.348C35.317 123.372 34.861 123.396 34.333 123.42C33.829 123.42 33.445 123.432 33.181 123.456V120.72H34.621C35.557 120.72 36.409 120.6 37.177 120.36C37.969 120.12 38.485 119.88 38.725 119.64H40.489C40.537 119.88 40.573 120.336 40.597 121.008C40.621 121.656 40.633 122.232 40.633 122.736C41.593 121.536 42.493 120.684 43.333 120.18C44.173 119.676 45.025 119.424 45.889 119.424C46.729 119.424 47.461 119.664 48.085 120.144C48.709 120.6 49.021 121.356 49.021 122.412C49.021 122.772 48.937 123.156 48.769 123.564C48.601 123.948 48.337 124.272 47.977 124.536C47.617 124.8 47.125 124.932 46.501 124.932C46.021 124.932 45.529 124.788 45.025 124.5C44.521 124.212 44.233 123.66 44.161 122.844C43.681 122.844 43.201 123.048 42.721 123.456C42.241 123.84 41.809 124.308 41.425 124.86C41.065 125.388 40.813 125.88 40.669 126.336V132.204C40.669 132.54 40.657 133.02 40.633 133.644C40.609 134.244 40.573 134.82 40.525 135.372C40.909 135.324 41.329 135.3 41.785 135.3C42.265 135.276 42.625 135.264 42.865 135.264V138H33.433V135.66ZM60.5621 138C60.5141 137.664 60.4781 137.388 60.4541 137.172C60.4541 136.932 60.4421 136.656 60.4181 136.344C59.6021 137.16 58.7381 137.736 57.8261 138.072C56.9141 138.408 55.9901 138.576 55.0541 138.576C53.5181 138.576 52.3181 138.12 51.4541 137.208C50.5901 136.296 50.1581 135.156 50.1581 133.788C50.1581 132.636 50.4461 131.652 51.0221 130.836C51.6221 130.02 52.4021 129.36 53.3621 128.856C54.3461 128.328 55.4261 127.932 56.6021 127.668C57.8021 127.38 59.0021 127.212 60.2021 127.164V125.292C60.2021 124.356 60.0101 123.564 59.6261 122.916C59.2661 122.268 58.5941 121.968 57.6101 122.016C56.6021 122.064 55.7861 122.4 55.1621 123.024C55.3541 123.24 55.4741 123.48 55.5221 123.744C55.5701 123.984 55.5941 124.2 55.5941 124.392C55.5941 124.872 55.4021 125.376 55.0181 125.904C54.6341 126.408 54.0221 126.648 53.1821 126.624C52.4621 126.6 51.9101 126.348 51.5261 125.868C51.1421 125.388 50.9501 124.824 50.9501 124.176C50.9501 123.216 51.2861 122.388 51.9581 121.692C52.6541 120.972 53.5781 120.42 54.7301 120.036C55.8821 119.628 57.1541 119.424 58.5461 119.424C60.6581 119.424 62.2901 119.976 63.4421 121.08C64.6181 122.16 65.2061 123.9 65.2061 126.3C65.2061 127.116 65.2061 127.812 65.2061 128.388C65.2061 128.964 65.1941 129.54 65.1701 130.116C65.1701 130.692 65.1701 131.388 65.1701 132.204C65.1701 132.54 65.1581 133.02 65.1341 133.644C65.1101 134.244 65.0741 134.82 65.0261 135.372C65.4341 135.324 65.8661 135.3 66.3221 135.3C66.7781 135.276 67.1261 135.264 67.3661 135.264V138H60.5621ZM60.1661 129.72C58.8221 129.84 57.6581 130.188 56.6741 130.764C55.7141 131.34 55.2461 132.144 55.2701 133.176C55.2941 133.848 55.5101 134.328 55.9181 134.616C56.3261 134.904 56.7941 135.048 57.3221 135.048C57.8741 135.048 58.3901 134.928 58.8701 134.688C59.3501 134.448 59.7821 134.136 60.1661 133.752V129.72ZM69.433 138V135.66C70.417 135.66 71.017 135.372 71.233 134.796C71.449 134.196 71.557 133.416 71.557 132.456V126.408C71.557 125.976 71.569 125.496 71.593 124.968C71.617 124.416 71.653 123.876 71.701 123.348C71.317 123.372 70.861 123.396 70.333 123.42C69.829 123.42 69.445 123.432 69.181 123.456V120.72C70.837 120.72 72.109 120.6 72.997 120.36C73.909 120.12 74.485 119.88 74.725 119.64H76.489C76.537 119.952 76.561 120.18 76.561 120.324C76.561 120.468 76.561 120.612 76.561 120.756C76.585 120.876 76.633 121.104 76.705 121.44C77.185 121.056 77.737 120.72 78.361 120.432C78.985 120.12 79.609 119.88 80.233 119.712C80.857 119.52 81.409 119.424 81.889 119.424C84.097 119.424 85.657 120.06 86.569 121.332C87.505 122.58 87.973 124.596 87.973 127.38V132.204C87.973 132.54 87.961 133.02 87.937 133.644C87.913 134.244 87.877 134.82 87.829 135.372C88.237 135.324 88.669 135.3 89.125 135.3C89.581 135.276 89.929 135.264 90.169 135.264V138H80.737V135.66C81.745 135.66 82.357 135.372 82.573 134.796C82.789 134.196 82.897 133.416 82.897 132.456L82.861 127.344C82.861 125.784 82.633 124.632 82.177 123.888C81.745 123.12 81.001 122.736 79.945 122.736C79.345 122.736 78.745 122.868 78.145 123.132C77.569 123.396 77.077 123.708 76.669 124.068V132.204C76.669 132.54 76.657 133.02 76.633 133.644C76.609 134.244 76.573 134.82 76.525 135.372C76.909 135.324 77.329 135.3 77.785 135.3C78.265 135.276 78.625 135.264 78.865 135.264V138H69.433ZM100.6 138.576C99.5678 138.576 98.5598 138.444 97.5758 138.18C96.5918 137.916 95.8238 137.58 95.2718 137.172L95.3438 138.252H92.6078L92.4638 132.06H94.8038C94.9238 133.164 95.4998 134.1 96.5318 134.868C97.5638 135.612 98.8478 135.984 100.384 135.984C100.984 135.984 101.548 135.84 102.076 135.552C102.604 135.264 102.868 134.808 102.868 134.184C102.844 133.488 102.472 132.972 101.752 132.636C101.056 132.3 100.036 131.868 98.6918 131.34C97.9478 131.052 97.1918 130.752 96.4238 130.44C95.6798 130.128 94.9838 129.756 94.3358 129.324C93.7118 128.868 93.2078 128.316 92.8238 127.668C92.4398 126.996 92.2478 126.18 92.2478 125.22C92.2478 124.284 92.4758 123.372 92.9318 122.484C93.4118 121.596 94.1558 120.864 95.1638 120.288C96.1718 119.712 97.4558 119.424 99.0158 119.424C99.6638 119.424 100.396 119.532 101.212 119.748C102.052 119.94 102.76 120.24 103.336 120.648V119.604H106.072V125.976H103.732C103.516 124.728 102.964 123.744 102.076 123.024C101.188 122.304 100.096 121.944 98.7998 121.944C98.1998 121.944 97.6478 122.088 97.1438 122.376C96.6638 122.664 96.4238 123.156 96.4238 123.852C96.4238 124.404 96.6158 124.848 96.9998 125.184C97.3838 125.496 97.9118 125.76 98.5838 125.976C99.2558 126.192 99.9998 126.444 100.816 126.732C102.04 127.14 103.12 127.62 104.056 128.172C105.016 128.724 105.772 129.396 106.324 130.188C106.876 130.956 107.152 131.904 107.152 133.032C107.152 134.28 106.84 135.312 106.216 136.128C105.592 136.944 104.776 137.556 103.768 137.964C102.784 138.372 101.728 138.576 100.6 138.576ZM118.324 138.576C116.572 138.576 115.024 138.192 113.68 137.424C112.336 136.632 111.292 135.528 110.548 134.112C109.804 132.672 109.432 130.98 109.432 129.036C109.432 127.356 109.804 125.784 110.548 124.32C111.292 122.856 112.336 121.68 113.68 120.792C115.048 119.88 116.632 119.424 118.432 119.424C119.44 119.424 120.424 119.568 121.384 119.856C122.344 120.12 123.208 120.588 123.976 121.26C124.768 121.932 125.392 122.844 125.848 123.996C126.328 125.148 126.556 126.588 126.532 128.316L114.724 128.532C114.724 129.828 114.88 130.992 115.192 132.024C115.528 133.056 116.068 133.872 116.812 134.472C117.556 135.072 118.552 135.372 119.8 135.372C120.52 135.372 121.372 135.18 122.356 134.796C123.364 134.388 124.276 133.68 125.092 132.672L126.712 134.184C125.848 135.408 124.924 136.344 123.94 136.992C122.956 137.616 121.972 138.036 120.988 138.252C120.028 138.468 119.14 138.576 118.324 138.576ZM114.94 126.012H121.564C121.54 124.524 121.252 123.48 120.7 122.88C120.148 122.256 119.452 121.944 118.612 121.944C117.556 121.944 116.728 122.328 116.128 123.096C115.528 123.84 115.132 124.812 114.94 126.012Z" fill="black"/>
<path d="M101.391 146.39C101.391 145.858 101.546 145.416 101.855 145.062C102.176 144.707 102.652 144.53 103.283 144.53C103.914 144.53 104.39 144.707 104.711 145.062C105.043 145.416 105.209 145.858 105.209 146.39C105.209 146.899 105.043 147.325 104.711 147.668C104.39 148.011 103.914 148.183 103.283 148.183C102.652 148.183 102.176 148.011 101.855 147.668C101.546 147.325 101.391 146.899 101.391 146.39Z" fill="black"/>
<path d="M116.391 146.39C116.391 145.858 116.546 145.416 116.855 145.062C117.176 144.707 117.652 144.53 118.283 144.53C118.914 144.53 119.39 144.707 119.711 145.062C120.043 145.416 120.209 145.858 120.209 146.39C120.209 146.899 120.043 147.325 119.711 147.668C119.39 148.011 118.914 148.183 118.283 148.183C117.652 148.183 117.176 148.011 116.855 147.668C116.546 147.325 116.391 146.899 116.391 146.39Z" fill="black"/>
<circle cx="72" cy="12" r="12" fill="#FFA800"/>
<circle cx="148" cy="12" r="12" fill="#FFA800"/>
<path fill-rule="evenodd" clip-rule="evenodd" d="M58.89 35C55.6921 35 53.2703 37.9173 54.2015 40.9766C61.2534 64.1434 82.7888 81 108.261 81C133.734 81 155.269 64.1434 162.321 40.9766C163.252 37.9173 160.83 35 157.633 35C155.255 35 153.221 36.6522 152.484 38.9129C146.418 57.539 128.912 71 108.261 71C87.6109 71 70.1046 57.539 64.0381 38.9129C63.3019 36.6522 61.2676 35 58.89 35Z" fill="#FFA800"/>
<path d="M152.086 127.697H141.346V139H137.971V113.406H153.826V116.184H141.346V124.938H152.086V127.697ZM156.111 129.314C156.111 127.451 156.475 125.775 157.201 124.287C157.939 122.799 158.959 121.65 160.26 120.842C161.572 120.033 163.066 119.629 164.742 119.629C167.332 119.629 169.424 120.525 171.018 122.318C172.623 124.111 173.426 126.496 173.426 129.473V129.701C173.426 131.553 173.068 133.217 172.354 134.693C171.65 136.158 170.637 137.301 169.312 138.121C168 138.941 166.488 139.352 164.777 139.352C162.199 139.352 160.107 138.455 158.502 136.662C156.908 134.869 156.111 132.496 156.111 129.543V129.314ZM159.381 129.701C159.381 131.811 159.867 133.504 160.84 134.781C161.824 136.059 163.137 136.697 164.777 136.697C166.43 136.697 167.742 136.053 168.715 134.764C169.688 133.463 170.174 131.646 170.174 129.314C170.174 127.229 169.676 125.541 168.68 124.252C167.695 122.951 166.383 122.301 164.742 122.301C163.137 122.301 161.842 122.939 160.857 124.217C159.873 125.494 159.381 127.322 159.381 129.701ZM176.643 129.314C176.643 127.451 177.006 125.775 177.732 124.287C178.471 122.799 179.49 121.65 180.791 120.842C182.104 120.033 183.598 119.629 185.273 119.629C187.863 119.629 189.955 120.525 191.549 122.318C193.154 124.111 193.957 126.496 193.957 129.473V129.701C193.957 131.553 193.6 133.217 192.885 134.693C192.182 136.158 191.168 137.301 189.844 138.121C188.531 138.941 187.02 139.352 185.309 139.352C182.73 139.352 180.639 138.455 179.033 136.662C177.439 134.869 176.643 132.496 176.643 129.543V129.314ZM179.912 129.701C179.912 131.811 180.398 133.504 181.371 134.781C182.355 136.059 183.668 136.697 185.309 136.697C186.961 136.697 188.273 136.053 189.246 134.764C190.219 133.463 190.705 131.646 190.705 129.314C190.705 127.229 190.207 125.541 189.211 124.252C188.227 122.951 186.914 122.301 185.273 122.301C183.668 122.301 182.373 122.939 181.389 124.217C180.404 125.494 179.912 127.322 179.912 129.701ZM197.244 129.332C197.244 126.414 197.936 124.07 199.318 122.301C200.701 120.52 202.512 119.629 204.75 119.629C206.977 119.629 208.74 120.391 210.041 121.914V112H213.293V139H210.305L210.146 136.961C208.846 138.555 207.035 139.352 204.715 139.352C202.512 139.352 200.713 138.449 199.318 136.645C197.936 134.84 197.244 132.484 197.244 129.578V129.332ZM200.496 129.701C200.496 131.857 200.941 133.545 201.832 134.764C202.723 135.982 203.953 136.592 205.523 136.592C207.586 136.592 209.092 135.666 210.041 133.814V125.078C209.068 123.285 207.574 122.389 205.559 122.389C203.965 122.389 202.723 123.004 201.832 124.234C200.941 125.465 200.496 127.287 200.496 129.701Z" fill="black"/>
</svg>
